<svg xmlns="http://www.w3.org/2000/svg" width="15" height="22" fill="none"><path fill="#fff" d="M2.727 7.563A4.847 4.847 0 0 1 4.125 4.16a4.739 4.739 0 0 1 6.75 0c.443.446.795.977 1.034 1.56a4.846 4.846 0 0 1-1.034 5.246c-.443.446-.97.8-1.549 1.043a4.74 4.74 0 0 1-5.2-1.043 4.847 4.847 0 0 1-1.398-3.403ZM8.864 15C12.354 14.356 15 11.27 15 7.562 15 3.386 11.642 0 7.5 0 3.358 0 0 3.386 0 7.563 0 11.27 2.646 14.355 6.136 15v1.5H4.773c-.755 0-1.364.614-1.364 1.375 0 .76.61 1.375 1.364 1.375h1.363v1.375c0 .76.61 1.375 1.364 1.375.754 0 1.364-.614 1.364-1.375V19.25h1.363c.755 0 1.364-.614 1.364-1.375 0-.76-.61-1.375-1.364-1.375H8.864V15Z"/></svg>