<svg xmlns="http://www.w3.org/2000/svg" width="60" height="72" fill="none"><path fill="#25282B" d="M59.998 18.23c-.03-.087-.083-.174-.087-.263a3.26 3.26 0 0 0-.199-.933c-.146-.421-.286-.847-.455-1.26-.805-1.972-1.852-3.815-3.015-5.596-.79-1.208-1.716-2.303-2.73-3.324-1.498-1.51-3.225-2.705-5.118-3.656C44.072 1.024 39.484-.024 34.65 0a16.49 16.49 0 0 0-3.279.32c-.624.13-1.237.304-1.818.573-.393.182-.76.405-1.065.72-.3.31-.48.67-.478 1.112 0 .128-.003.256-.006.383-.02 1.073-.032 1.088.655 2.08l.545.785.19.27c.191 0 .365.007.54 0 1.036-.04 2.072-.07 3.107-.128 1.497-.083 2.994-.144 4.494-.069 1.306.064 2.601.278 3.858.64 1.528.443 2.935 1.147 4.293 1.961 1.835 1.1 3.483 2.423 4.841 4.086 1.257 1.539 2.339 3.189 3.11 5.031.228.544.482 1.078.743 1.607.241.491.56.93.98 1.286.506.428 1.083.671 1.753.647 1.16-.043 2.026-.595 2.642-1.56.075-.117.099-.266.153-.398.022-.055.06-.103.092-.154l-.002-.962Zm-1.422.269c-.021.67-.368 1.146-.93 1.462-.381.214-.782.17-1.125-.096a2.362 2.362 0 0 1-.52-.555c-.224-.348-.428-.71-.611-1.082-.33-.655-.638-1.322-.964-1.98-1.306-2.635-3.043-4.944-5.265-6.872-2.276-1.976-4.868-3.369-7.794-4.115a15.775 15.775 0 0 0-3.07-.445c-1.628-.087-3.253-.014-4.878.069-.732.037-1.465.072-2.198.09a5.007 5.007 0 0 1-.81-.055c-.528-.074-.867-.373-.997-.897a2.664 2.664 0 0 1-.05-.999c.034-.263.18-.474.37-.653.226-.212.493-.348.78-.455.573-.216 1.17-.308 1.774-.368 1.289-.126 2.58-.103 3.852-.018.878.035 1.738.075 2.6.103 1.396.044 2.752.324 4.084.72a30.338 30.338 0 0 1 4.535 1.778c1.432.69 2.72 1.601 3.907 2.653a26.634 26.634 0 0 1 6.212 8.127c.398.801.735 1.629.95 2.5.088.357.16.717.148 1.088ZM46.204 52.547c-.292-.42-.617-.814-1.016-1.14-.246-.2-.502-.39-.826-.461-.076.172-.032.327-.01.481.084.57.247 1.124.483 1.649.243.538.51 1.064.76 1.598.26.548.527 1.093.764 1.65.603 1.412.783 2.892.604 4.409-.254 2.143-1.068 4.06-2.407 5.752-.629.794-1.35 1.491-2.22 2.018a17.42 17.42 0 0 1-3.005 1.463c-.901.332-1.827.56-2.792.604-.847.04-1.686-.045-2.526-.144-.712-.083-1.428-.13-2.143-.188-.091-.007-.185.016-.283.026-.074.25-.057.49-.075.726-.017.222.085.358.294.434.449.166.895.333 1.373.398.265.036.543.036.786.178l1.149-.002c.169-.04.335-.096.507-.116.822-.101 1.645-.194 2.457-.367.842-.177 1.67-.413 2.48-.705 1.478-.54 2.736-1.43 3.876-2.492 2.272-2.117 3.529-4.738 3.76-7.834a13.136 13.136 0 0 0-.995-6.086 9.883 9.883 0 0 0-.995-1.85Z"/><path fill="#25282B" d="M34.066 68.835c1.452.006 2.9-.157 4.314-.484 1.154-.266 2.265-.649 3.305-1.226a6.18 6.18 0 0 0 2.417-2.394c.22-.388.413-.792.577-1.208.526-1.341.71-2.742.679-4.178a7.542 7.542 0 0 0-.562-2.703c-.497-1.22-1.266-2.252-2.229-3.136-1.66-1.523-3.523-2.74-5.612-3.59-.663-.269-1.354-.47-2.036-.69-1.571-.502-3.186-.777-4.83-.89-1.097-.075-2.194-.141-3.287-.277-2.117-.264-4-1.042-5.592-2.478a41.982 41.982 0 0 1-1.776-1.674c-1.21-1.227-2.396-2.479-3.599-3.712a124.172 124.172 0 0 0-2.433-2.441 11.54 11.54 0 0 0-1.243-1.047 4.685 4.685 0 0 0-3.149-.915c-.89.06-1.719.338-2.485.79-1.505.886-2.594 2.144-3.288 3.748a5.894 5.894 0 0 0-.505 2.564c.024.685.056 1.371.118 2.055a18.268 18.268 0 0 0 1.125 4.784c.934 2.482 2.345 4.67 4.098 6.645 1.683 1.896 3.605 3.522 5.678 4.97 3.2 2.235 6.622 4.077 10.191 5.645 1.11.487 2.258.88 3.433 1.174 1.852.465 3.737.627 5.626.67l1.065-.002Zm-26.07-14.5c-.73-.435-1.348-1.437-1.433-2.337.372-.012.73.032 1.017.28.303.264.528.592.614.994.05.231.074.468.111.71l-.31.352Zm3.146 3.31c-.858-.06-1.479-.766-1.604-1.825.3-.308.886-.663 1.316-.796.728.796.804 1.935.288 2.622Zm2.417-18.595c.507.183.708.717.466 1.202-.048.095-.114.184-.172.275-.229.004-.417-.082-.604-.158a.668.668 0 0 1-.44-.573c-.027-.265-.034-.533-.051-.827.32-.085.566-.003.8.081Zm1.66 20.88c-.001.06-.027.12-.04.173-1.048.101-2.31-.587-2.929-1.585a2.435 2.435 0 0 1 2.417-1.352c.29.472.563.97.564 1.568 0 .398-.006.797-.012 1.196Zm.274-15.552c-.276-.185-.569-.346-.808-.561-.157-.895.14-1.653 1.056-2.148.47.234 1.073.827 1.464 1.462.223.362.433.734.437 1.203-.096.02-.169.048-.243.05-.398.008-.794.032-1.181.128a.872.872 0 0 1-.726-.134Zm3.618 18.177c-.08.348-.297.466-.64.353a1.623 1.623 0 0 1-.344-.16c-.667-.41-1.24-.932-1.816-1.488.507-1.215 1.152-1.718 2.387-1.627.024.03.066.061.077.102.2.787.37 1.578.372 2.396.004.143-.008.285-.036.424Zm1-14.489a1.87 1.87 0 0 1-1.254.623c-.3.027-.6.028-.93.042-.376-.75-.457-1.48-.256-2.231.046-.17.117-.331.21-.48.288-.458.736-.6 1.243-.414.274.1.509.265.724.455.41.36.742.787 1.058 1.259-.07.073-.128.142-.194.202-.2.18-.42.345-.601.544ZM23.09 65c-.29.085-.556.027-.814-.02a2.668 2.668 0 0 1-.586-.197c-.421-.185-.835-.385-1.309-.605-.015-.493.11-.92.543-1.236.35-.253.682-.527 1.077-.703.158-.07.325-.12.517-.19.599.913.62 1.913.571 2.952Zm.723-15.388c-.12.405-.376.695-.773.852-.327.13-.678.187-1.03.168-.278-.014-.448-.157-.483-.434a2.06 2.06 0 0 1 .005-.57c.075-.456.211-.9.405-1.32.018-.041.059-.072.103-.125.655.016 1.265.212 1.853.525v-.002c.06.348 0 .63-.08.906Zm12.608 1.342c.601.163.7.29.75.963-.72-.012-.95-.263-.973-1.006.1.02.163.029.223.043Zm-5.943-1.38c.229-.047.46 0 .693.038 1.44.248 1.554.277 1.957.492-.127.78-.688 1.203-1.29 1.584-1.138-.413-1.569-1.166-1.36-2.114Zm-4.38-.024c.038-.31.208-.48.514-.551.063-.012.126-.02.19-.024.365-.043 1.561-.01 1.98.059.005.083.022.175.013.263-.063.643-.305 1.207-.79 1.642-.247.222-.527.41-.8.602a.847.847 0 0 1-.563.139c-.144-.34-.276-.647-.409-.954-.163-.38-.183-.776-.135-1.176Zm1.35 17.29a3.329 3.329 0 0 1-.756-.07 5.509 5.509 0 0 1-1.68-.652c-.103-.348-.01-.651.196-.94.306-.429.613-.855.993-1.222.332-.322.48-.414.964-.09.668.446 1.04 1.102 1.17 1.894a.853.853 0 0 1 .007.096c.025.623-.276.968-.894.984Zm4.073.144a.45.45 0 0 1-.283.41.916.916 0 0 1-.27.09 5.714 5.714 0 0 1-1.337-.01 1.83 1.83 0 0 1-.067-1.043c.046-.226.186-.408.36-.551.233-.192.479-.367.722-.553.383.15.625.406.766.761.112.289.12.593.11.896Zm1.065-.061c-.102-.401-.16-.815-.263-1.216-.279-1.08-.558-2.16-.865-3.234-.122-.428-.3-.842-.48-1.25a3.514 3.514 0 0 0-1.244-1.486c-.276-.19-.553-.379-.834-.56-.929-.594-1.798-1.267-2.646-1.971-.327-.271-.488-.575-.446-.994.013-.123.016-.247.024-.37.068-.022.11-.048.155-.05 1.744-.069 3.439.138 5.016.949.565.29 1.134.582 1.675.917 1.82 1.127 2.858 2.778 3.2 4.881.241 1.486.28 2.986.276 4.488 0 .046-.018.093-.031.158-.32.135-.676.136-1.014.215-.594.14-1.205.116-1.81.099-.416-.012-.61-.169-.713-.576Z"/><path fill="#25282B" d="M52.76 24.517c-2.187-1.768-4.72-2.616-7.508-2.719a38.646 38.646 0 0 0-4.256.101 15.23 15.23 0 0 0-1.516.197c-.46.08-.88.248-1.219.607-.315.334-.751.44-1.305.384-.009-.15-.013-.307-.03-.462-.049-.46-.08-.923-.159-1.378-.309-1.782-1.047-3.378-2.147-4.803-1.719-2.224-3.933-3.752-6.593-4.636-1.644-.545-3.325-.739-5.046-.473-1.022.158-1.975.502-2.839 1.077a20.855 20.855 0 0 0-2.778 2.19c-.874.826-1.65 1.732-2.28 2.76-1.046 1.707-1.55 3.561-1.484 5.563.029.895.194 1.774.373 2.651.427 2.088 1.434 3.843 2.998 5.28a12.973 12.973 0 0 0 5.066 2.893c.95.287 1.918.469 2.912.507.184.008.38-.024.572.096-.07.327-.215.61-.402.866-.282.385-.585.757-.887 1.128-.322.396-.662.777-.981 1.175-1.17 1.462-1.738 3.14-1.774 5.005-.008.404.103.755.372 1.055.395.44.881.733 1.445.894.23.066.47.096.71.03.397-.113.804-.2 1.19-.347 1.628-.617 3.063-1.562 4.392-2.672.279-.233.515-.521.75-.802.226-.271.396-.583.503-.919.054-.164.104-.328.08-.511-.26-.048-.46.06-.664.14-.495.194-.933.488-1.34.823-.442.365-.864.76-1.304 1.127-.44.366-.882.735-1.349 1.068a4.18 4.18 0 0 1-1.938.766c-.395.048-.793.068-1.19.094-.09.005-.182-.021-.281-.034-.014-.084-.033-.145-.033-.206 0-.703.03-1.404.15-2.1.16-.931.522-1.772 1.138-2.495.26-.304.519-.606.786-.903a21.332 21.332 0 0 0 1.778-2.252c.18-.264.372-.52.552-.783.208-.303.486-.475.845-.577 1.256-.356 2.405-.93 3.41-1.776.28-.237.574-.456.867-.678.072-.054.161-.085.241-.126.191.181.25.386.247.62-.005.464.003.927-.007 1.39-.01.498.048.989.133 1.476.287 1.654.961 3.136 1.98 4.464 1.26 1.641 2.853 2.864 4.726 3.724 1.422.654 2.915 1.027 4.482 1.063 1.1.026 2.2-.025 3.294-.155 1.517-.181 2.908-.693 4.161-1.571a12.83 12.83 0 0 0 2.399-2.189 8.538 8.538 0 0 0 1.79-3.454c.184-.714.312-1.438.352-2.17.058-1.02.084-2.043.096-3.064a8.014 8.014 0 0 0-.323-2.269c-.542-1.908-1.628-3.455-3.157-4.69Zm-23.31 7.542c-.786.58-1.676.902-2.638 1.048-1.401.214-2.765.02-4.105-.383-2.017-.608-3.81-1.6-5.315-3.097-1.29-1.283-1.974-2.828-2.118-4.637-.091-1.165-.091-2.33-.067-3.493.023-1.148.317-2.243.822-3.271 1.334-2.722 3.427-4.558 6.359-5.399a8.405 8.405 0 0 1 2.088-.302c1.67 0 3.04.329 4.336.949 2.141 1.024 3.908 2.512 5.32 4.417.672.906 1.152 1.911 1.372 3.026.25 1.265.147 2.51-.24 3.733a11.395 11.395 0 0 1-1.69 3.31c-1.16 1.583-2.55 2.936-4.125 4.099Zm24.048 6.197a22.175 22.175 0 0 1-1.271 1.797c-1.15 1.44-2.67 2.297-4.445 2.72-1.906.453-3.8.329-5.67-.205a12.253 12.253 0 0 1-4.94-2.727c-1.657-1.502-2.656-3.364-3.036-5.565a13.547 13.547 0 0 1-.182-1.809c-.038-1.038.158-2.032.532-2.994.56-1.443 1.366-2.743 2.357-3.922.985-1.17 2.264-1.898 3.715-2.334 1.062-.32 2.154-.436 3.178-.439 2.182.032 4.19.474 6.088 1.381.36.172.707.37 1.05.572.777.46 1.453 1.037 1.975 1.782.375.536.75 1.071 1.12 1.612.254.373.401.792.493 1.235.229 1.096.396 2.205.438 3.32.075 1.989-.303 3.88-1.402 5.576ZM8.71 58.577c-.41-.446-.835-.88-1.26-1.312-2.963-3.022-4.91-6.618-5.984-10.696-.451-1.714-.6-3.458-.345-5.223.163-1.135.515-2.207 1.108-3.19a11.635 11.635 0 0 1 2.551-2.958c1.388-1.15 3.004-1.482 4.753-1.297.994.105 1.932.42 2.82.864.684.342 1.349.724 2.014 1.102.54.307 1.068.637 1.604.952.075.043.165.061.253.093.059-.192.012-.343-.032-.497-.15-.539-.462-.977-.857-1.36-.462-.451-1-.791-1.573-1.078-.83-.418-1.706-.708-2.606-.93-1.455-.36-2.922-.47-4.411-.252-1.087.159-2.052.578-2.872 1.31-.392.35-.759.729-1.129 1.103-.911.921-1.568 2.01-2.055 3.203-.462 1.135-.722 2.313-.686 3.547.032 1.054.044 2.108.103 3.159.056.94.195 1.874.417 2.79.387 1.615 1.053 3.11 1.904 4.528a33.854 33.854 0 0 0 4.212 5.623c.447.478.921.929 1.42 1.351.338.288.726.519 1.103.755.154.096.325.194.56.173a1.786 1.786 0 0 0-.157-.495 4.594 4.594 0 0 0-.855-1.265Z"/><path fill="#25282B" d="M48.348 46.557c-.685.035-1.365.109-2.027.303-.443.13-.886.26-1.33.387-1.018.293-2.037.3-3.071.07a8.87 8.87 0 0 1-3.747-1.824c-.395-.323-.777-.661-1.178-.977a9.636 9.636 0 0 0-.86-.604 2.024 2.024 0 0 0-.996-.325c-.092.214-.028.416.024.61.133.504.4.936.742 1.324.33.373.706.692 1.112.977.677.479 1.388.908 2.127 1.284a7.25 7.25 0 0 0 1.743.644c1.656.362 3.37.38 5.033.053.564-.11 1.113-.277 1.623-.553.297-.16.572-.351.778-.624.152-.204.29-.417.266-.713-.088-.012-.164-.036-.239-.032ZM15.89 34.41c1.32 1.17 2.852 1.844 4.606 2.006.298.028.6.058.912-.003.008-.417-.192-.714-.517-.916a4.702 4.702 0 0 0-.773-.368c-.386-.15-.783-.267-1.171-.41a6.783 6.783 0 0 1-3.17-2.373c-.32-.434-.603-.9-.875-1.367-.362-.623-.632-1.286-.714-2.012a2.764 2.764 0 0 0-.616-1.418c-.067.042-.113.061-.145.093-.338.327-.491.735-.52 1.198-.045.736.153 1.422.437 2.087.579 1.358 1.444 2.507 2.547 3.484ZM45.938 31.384c-.376-.05-.758-.053-1.138-.07-.078-.003-.157.02-.234.038-.391.09-.635.332-.752.716-.112.366-.017.69.194.99.252.357.598.612.961.84.069.045.197.067.263.032.29-.15.607-.165.946-.206.137-.531.266-1.052.31-1.59a.9.9 0 0 0 0-.095c-.01-.391-.167-.603-.55-.655ZM24.329 19.911c-.105-.202-.27-.315-.499-.304-.452.02-.885.12-1.252.4-.34.257-.616.589-.805.97.287.436.608.843 1.042 1.153.065.045.134.084.207.118.417.198.795.126 1.054-.247.416-.597.505-1.259.31-1.959a.7.7 0 0 0-.057-.13Z"/></svg>