<svg xmlns="http://www.w3.org/2000/svg" width="12" height="20" fill="none"><path fill="#fff" d="M2.667 5.717c0-1.575 1.196-2.856 2.666-2.856h1.334c1.47 0 2.666 1.28 2.666 2.856v.161c0 .973-.462 1.88-1.225 2.401L6.35 9.49c-1.05.723-1.683 1.968-1.683 3.303v.062c0 .79.596 1.429 1.333 1.429s1.333-.639 1.333-1.429v-.062c0-.366.175-.705.459-.902l1.758-1.21C11.075 9.628 12 7.82 12 5.875v-.161C12 2.557 9.613 0 6.667 0H5.333C2.387.004 0 2.562 0 5.717c0 .79.596 1.429 1.333 1.429.738 0 1.334-.639 1.334-1.429ZM6 20c.442 0 .866-.188 1.179-.523.312-.335.488-.789.488-1.262 0-.474-.176-.928-.488-1.263A1.613 1.613 0 0 0 6 16.43c-.442 0-.866.189-1.179.523a1.852 1.852 0 0 0-.488 1.263c0 .473.176.927.488 1.262.313.335.737.523 1.179.523Z"/></svg>